<?xml version="1.0" encoding="UTF-8"?>
<!DOCTYPE svg PUBLIC "-//W3C//DTD SVG 1.1//EN" "http://www.w3.org/Graphics/SVG/1.1/DTD/svg11.dtd">
<svg xmlns="http://www.w3.org/2000/svg" xmlns:xlink="http://www.w3.org/1999/xlink">
  <symbol id="icon-captions-off" viewBox="0 0 18 18">
    <path d="M1 2c-.552 0-1 .448-1 1v12c0 .552.448 1 1 1h16c.552 0 1-.448 1-1V3c0-.552-.448-1-1-1H1zm1 12V4h14v10H2z"/>
  </symbol>
  <symbol id="icon-captions-on" viewBox="0 0 18 18">
    <path d="M1 2c-.552 0-1 .448-1 1v12c0 .552.448 1 1 1h16c.552 0 1-.448 1-1V3c0-.552-.448-1-1-1H1zm1 12V4h14v10H2z"/>
    <path d="M3 11h3v2H3zM12 11h3v2h-3zM7 11h4v2H7z"/>
  </symbol>
  <symbol id="icon-enter-fullscreen" viewBox="0 0 18 18">
    <path d="M10.3 9.7c.7.677 1.4 0 1.4 0L16 5.4V10h2V3c0-.6-.4-1-1-1h-7v2h4.6l-4.3 4.3s-.7.723 0 1.4z"/>
    <path d="M7 2v2H2v10h14v-1h2v2c0 .6-.4 1-1 1H1c-.6 0-1-.4-1-1V3c0-.6.4-1 1-1h6z"/>
  </symbol>
  <symbol id="icon-exit-fullscreen" viewBox="0 0 18 18">
    <path d="M7.7 8.3c-.7-.677-1.4 0-1.4 0L2 12.6V8H0v7c0 .6.4 1 1 1h7v-2H3.4l4.3-4.3s.7-.723 0-1.4z"/>
    <path d="M11 16v-2h5V4H2v1H0V3c0-.6.4-1 1-1h16c.6 0 1 .4 1 1v12c0 .6-.4 1-1 1h-6z"/>
  </symbol>
  <symbol id="icon-fast-forward" viewBox="0 0 18 18">
    <path d="M17.57 8.246L7 2c-.552 0-1 .448-1 1v1.954L1 2c-.552 0-1 .448-1 1v12c0 .552.448 1 1 1l5-2.955V15c0 .552.448 1 1 1l10.57-6.246c.266-.158.43-.444.43-.754s-.164-.597-.43-.754zM6 10.722l-4 2.364V4.914l4 2.364v3.444zm2 2.364V4.914L14.915 9 8 13.086z"/>
  </symbol>
  <symbol id="icon-muted" viewBox="0 0 18 18">
    <path d="M9.214 2c-.11 0-.225.032-.334.1L4.832 4.91C4.75 4.97 4.65 5 4.55 5H.995C.446 5 0 5.448 0 6v6c0 .552.446 1 .996 1H4.55c.1 0 .2.03.282.09L8.88 15.9c.11.068.223.1.334.1.392 0 .747-.4.747-.95V2.95c0-.55-.354-.95-.746-.95zM7.97 12.834L5.58 11.177c-.166-.115-.364-.178-.566-.178H2.49c-.274 0-.497-.225-.497-.5v-3c0-.277.223-.5.498-.5h2.526c.202 0 .4-.063.566-.18L7.97 5.165v7.67zM14.934 8.8c-.086-1.75-1.514-2.992-2.507-3.65-.47-.312-1.094-.122-1.325.408l-.038.086c-.188.43-.045.94.336 1.194.706.473 1.586 1.247 1.624 2.065.032.676-.553 1.468-1.663 2.27-.397.288-.528.84-.284 1.275l.042.075c.266.475.866.624 1.3.312 1.74-1.25 2.586-2.606 2.516-4.037z"/>
    <path d="M13.957 9.2c.086 1.747 1.514 2.99 2.507 3.648.47.312 1.094.122 1.325-.408l.037-.086c.188-.43.045-.94-.336-1.194-.705-.473-1.585-1.247-1.623-2.065-.032-.676.553-1.468 1.663-2.27.398-.288.53-.84.285-1.275l-.042-.075c-.266-.475-.866-.624-1.3-.312-1.74 1.25-2.586 2.606-2.516 4.037z"/>
  </symbol>
  <symbol id="icon-pause" viewBox="0 0 18 18">
    <path d="M2 4v10c0 2 2 2 2 2h2s2 0 2-2V4c0-2-2-2-2-2H4S2 2 2 4zm2 0h2v10H4V4zM10 4v10c0 2 2 2 2 2h2s2 0 2-2V4c0-2-2-2-2-2h-2s-2 0-2 2zm2 0h2v10h-2V4z"/>
  </symbol>
  <symbol id="icon-play" viewBox="0 0 18 18">
    <path d="M5 4.914L11.915 9 5 13.086V4.914zM4 2c-.552 0-1 .448-1 1v12c0 .552.448 1 1 1l10.57-6.246c.266-.158.43-.444.43-.754s-.164-.597-.43-.754L4 2z"/>
  </symbol>
  <symbol id="icon-restart" viewBox="0 0 16 16">
    <path d="M7.7 1.2l.7 6.4 2.1-2.1c1.9 1.9 1.9 5.1 0 7-.9 1-2.2 1.5-3.5 1.5-1.3 0-2.6-.5-3.5-1.5-1.9-1.9-1.9-5.1 0-7 .6-.6 1.4-1.1 2.3-1.3l-.6-1.9C4 2.6 2.9 3.2 2 4.1-.7 6.8-.7 11.2 2 14c1.3 1.3 3.1 2 4.9 2 1.9 0 3.6-.7 4.9-2 2.7-2.7 2.7-7.1 0-9.9L14 1.9l-6.3-.7z"/>
  </symbol>
  <symbol id="icon-rewind" viewBox="0 0 18 21">
    <path d="M.43 10.754L11 17c.552 0 1-.448 1-1v-1.954L17 17c.552 0 1-.448 1-1V4c0-.552-.448-1-1-1l-5 2.955V4c0-.552-.448-1-1-1L.43 9.246C.165 9.404 0 9.69 0 10s.164.597.43.754zM12 8.278l4-2.364v8.172l-4-2.364V8.278zm-2-2.364v8.172L3.085 10 10 5.914z"/>
  </symbol>
  <symbol id="icon-volume" viewBox="0 0 18 18">
    <path d="M10.214 2c-.11 0-.225.032-.334.1L5.832 4.91C5.75 4.97 5.65 5 5.55 5H1.995C1.446 5 1 5.448 1 6v6c0 .552.446 1 .996 1H5.55c.1 0 .2.03.282.09L9.88 15.9c.11.068.223.1.334.1.392 0 .747-.4.747-.95V2.95c0-.55-.354-.95-.746-.95zM8.97 12.834L6.58 11.177c-.166-.115-.364-.178-.566-.178H3.49c-.274 0-.497-.225-.497-.5v-3c0-.277.223-.5.498-.5h2.526c.202 0 .4-.063.566-.18L8.97 5.165v7.67zM16.934 8.8c-.086-1.75-1.514-2.992-2.507-3.65-.47-.312-1.094-.122-1.325.408l-.038.086c-.188.43-.045.94.336 1.194.706.473 1.586 1.247 1.624 2.065.032.676-.553 1.468-1.663 2.27-.397.288-.528.84-.284 1.275l.042.075c.266.475.866.624 1.3.312 1.74-1.25 2.586-2.606 2.516-4.037z"/>
  </symbol>
  <symbol id="icon-map" viewBox="0 0 612 612">
    <path d="M516.316,337.52l94.233,193.581c3.832,7.873-0.196,14.314-8.952,14.314H10.402c-8.756,0-12.785-6.441-8.952-14.314
		L95.684,337.52c1.499-3.079,5.528-5.599,8.952-5.599h80.801c2.49,0,5.853,1.559,7.483,3.442
		c5.482,6.335,11.066,12.524,16.634,18.65c5.288,5.815,10.604,11.706,15.878,17.735h-95.891c-3.425,0-7.454,2.519-8.952,5.599
		L58.163,505.589h495.67l-62.421-128.242c-1.498-3.08-5.527-5.599-8.953-5.599h-96.108c5.273-6.029,10.591-11.92,15.879-17.735
		c5.585-6.144,11.2-12.321,16.695-18.658c1.628-1.878,4.984-3.434,7.47-3.434h80.971
		C510.789,331.921,514.817,334.439,516.316,337.52z M444.541,205.228c0,105.776-88.058,125.614-129.472,227.265
		c-3.365,8.26-14.994,8.218-18.36-0.04c-37.359-91.651-112.638-116.784-127.041-198.432
		c-14.181-80.379,41.471-159.115,122.729-166.796C375.037,59.413,444.541,124.204,444.541,205.228z M379.114,205.228
		c0-40.436-32.779-73.216-73.216-73.216s-73.216,32.78-73.216,73.216c0,40.437,32.779,73.216,73.216,73.216
		S379.114,245.665,379.114,205.228z"/>
  </symbol>
  <symbol id="icon-mannequin" viewBox="0 0 485.946 485.946">
    <path d="M338.122,282.09l-40.543-117.134c-5.155-14.855-4.077-31.148,2.944-45.195l24.297-48.609
			c3.32-6.629,3.543-14.363,0.634-21.168c-2.927-6.801-8.698-11.957-15.759-14.109l-22.809-6.961
			c-7.656-2.34-12.875-9.395-12.875-17.383C274.011,5.156,268.851,0,262.48,0h-39.027c-6.375,0-11.547,5.156-11.547,11.547
			c0,7.988-5.219,15.027-12.859,17.367l-22.797,6.961c-7.086,2.152-12.844,7.309-15.754,14.109
			c-2.926,6.805-2.703,14.555,0.602,21.168l24.313,48.609c7.023,14.047,8.082,30.34,2.957,45.195L147.809,282.09v0.021l0,0
			c0.031,7.336,34.152,13.414,78.969,14.612v150.672c-30.184,2.074-52.645,9.763-52.645,18.97c0,10.819,30.813,19.582,68.84,19.582
			c38.012,0,68.844-8.763,68.844-19.582c0-9.207-22.492-16.896-52.645-18.97V296.723c44.797-1.198,78.934-7.276,78.965-14.612l0,0
			L338.122,282.09z"/>
  </symbol>
  <symbol id="icon-shirt" viewBox="0 0 34.865 34.865">
    <path d="M29.483,2.048h-2.537c0.115-0.292,0.144-0.618,0.058-0.938C26.827,0.455,26.233,0,25.557,0H9.307
		C8.627,0,8.035,0.455,7.859,1.11C7.772,1.429,7.8,1.756,7.916,2.048H5.38c-0.828,0-1.5,0.671-1.5,1.5v29.817
		c0,0.829,0.672,1.5,1.5,1.5h24.105c0.828,0,1.5-0.671,1.5-1.5V3.548C30.983,2.72,30.312,2.048,29.483,2.048z M9.928,2.409
		l6.473,5.078l-3.06,3.377L9.928,2.409z M18.458,7.487l6.473-5.077l-3.412,8.454L18.458,7.487z M6.875,31.866V5.049h3.039
		l2.798,6.929c0.063,0.16,0.206,0.275,0.376,0.305c0.029,0.005,0.059,0.008,0.088,0.008c0.141,0,0.273-0.059,0.37-0.164l2.37-2.616
		l-2.062,22.355H6.875z M27.983,31.866h-7.229L18.663,9.202l2.648,2.924c0.097,0.105,0.229,0.164,0.371,0.164
		c0.028,0,0.06-0.002,0.088-0.008c0.168-0.03,0.312-0.146,0.375-0.305l2.8-6.929h3.036v26.818H27.983z"/>
  </symbol>
  <symbol id="icon-black-cloth" viewBox="0 0 488.549 488.549">
    <path d="M244.29,92.228c-8.924,0-16.167,7.242-16.167,16.17v48.245c-23.736,0.996-47.299,4.423-70.357,9.777
				c1.203,4.246,1.992,8.621,1.992,13.147c0,12.311,2.777,23.932,7.546,34.49c50.188-11.806,103.773-11.806,153.972,0
				c4.741-10.558,7.519-22.18,7.519-34.49c0-4.518,0.805-8.901,2.02-13.147c-23.07-5.354-46.616-8.781-70.352-9.777v-34.205
				c26.514-7.138,46.096-31.403,46.096-60.152C306.56,27.946,278.642,0,244.291,0c-34.344,0-62.296,27.946-62.296,62.286
				c0,8.929,7.245,16.17,16.168,16.17c8.94,0,16.173-7.241,16.173-16.17c0-16.512,13.453-29.942,29.956-29.942
				c16.504,0,29.928,13.43,29.928,29.942C274.217,78.798,260.794,92.228,244.29,92.228z" />
    <path d="M476.608,200.326l-93.993-35.58c-1.814-0.688-3.729-1.027-5.62-1.027c-3.158,0-6.321,0.954-9.002,2.802
				c-4.282,2.961-6.857,7.834-6.857,13.046c0,64.542-52.304,116.862-116.862,116.862c-64.524,0-116.861-52.32-116.861-116.862
				c0-5.212-2.558-10.09-6.835-13.046c-2.688-1.853-5.828-2.802-9.003-2.81c-1.897,0-3.806,0.347-5.62,1.035l-93.999,35.58
				c-6.174,2.337-10.25,8.234-10.25,14.829v257.546c0,8.75,7.11,15.848,15.859,15.848h453.44c8.749,0,15.837-7.098,15.837-15.848
				V215.155C486.841,208.56,482.771,202.663,476.608,200.326z"/>
  </symbol>
  <symbol id="icon-black-dress" viewBox="0 0 40.002 40.002">
    <path d="M18.681,20.307h1.833v0.172h-1.833V20.307z M17.535,19.006c0-0.191-0.155-0.346-0.346-0.346s-0.346,0.154-0.346,0.346
		c0,0.192,0.155,0.346,0.346,0.346S17.535,19.198,17.535,19.006z M28.109,24.064c-0.463-1.342-0.9-2.606-1.196-3.758h-5.53v-2.601
		h5.271c0.122-3.306,1.643-11.87,1.667-12.046l-0.009-4.998c0-0.133-0.055-0.26-0.147-0.354c-0.094-0.093-0.212-0.153-0.354-0.146
		l-2.417,0.005c-0.275,0.001-0.5,0.225-0.498,0.501l0.009,4.792c-1.841,0.427-3.663,0.644-5.422,0.644
		c-2.177,0-3.697-0.338-4.328-0.509l-0.094-5.104C15.057,0.219,14.833,0,14.562,0c0,0,0,0-0.001,0l-2.328,0.005
		c-0.27,0.001-0.491,0.215-0.499,0.484c-0.005,0.164-0.12,4.018,0.012,5.348c0.132,1.324,0.475,3.152,0.838,5.09
		c0.461,2.46,0.933,4.987,1.038,6.78h4.495v-0.456c0-0.155,0.126-0.282,0.282-0.282h2.397c0.134,0,0.246,0.094,0.274,0.219v3.637
		c-0.029,0.125-0.141,0.219-0.274,0.219h-2.397c-0.156,0-0.282-0.127-0.282-0.28v-0.457h-4.731
		c-1.409,3.916-4.143,15.987-4.259,16.5c-0.042,0.189,0.028,0.389,0.181,0.508c0.154,0.117,0.362,0.138,0.535,0.049
		c0.552-0.282,1.208-0.426,1.95-0.426c2.345,0,4.784,1.416,4.788,1.414c1.552,1.097,3.382,1.65,5.439,1.65
		c4.473,0,8.474-2.594,8.642-2.705c0.146-0.094,0.229-0.258,0.227-0.432C30.745,31.688,29.283,27.46,28.109,24.064z M20.342,19.006
		c0-0.191-0.155-0.346-0.346-0.346s-0.346,0.154-0.346,0.346c0,0.192,0.155,0.346,0.346,0.346S20.342,19.198,20.342,19.006z
		 M18.247,19.006c0,0.191,0.155,0.346,0.346,0.346c0.191,0,0.346-0.154,0.346-0.346c0-0.192-0.155-0.346-0.346-0.346
		C18.401,18.66,18.247,18.815,18.247,19.006z M20.514,17.534h-1.833v0.173h1.833V17.534z"/>
  </symbol>
  <symbol id="icon-objects" viewBox="0 0 483.207 483.207">
    <path d="M26.775,185.331c9.008-10.663,26.383-12.145,37.055-3.118c11.073,9.362,12.47,25.981,3.117,37.055l37.026,31.289h59.268   h14.812h22.902l7.975-23.992L99.364,133.989l-36.366,19.346l-32.14-27.158L0,162.696L26.775,185.331L26.775,185.331z    M188.152,221.524l-18.513,21.918l-36.519-30.858l18.513-21.918L188.152,221.524z M100.502,147.473l36.519,30.858l-18.513,21.917   l-10.385-8.778l-26.134-22.08L100.502,147.473z" />
    <path d="M34.081,191.508L34.081,191.508c-2.878,3.414-4.265,7.746-3.892,12.202c0.373,4.456,2.458,8.491,5.871,11.379   c6.799,5.757,17.854,4.791,23.581-1.979l0,0c5.958-7.047,5.068-17.623-1.989-23.581c-3.012-2.543-6.847-3.949-10.787-3.949   C41.932,185.569,37.274,187.73,34.081,191.508z" />
    <path d="M335.223,250.557c11.371-10.213,20.053-23.571,24.719-39.102l-41.367-9.974c-3.174,17.002-1.443,33.89,4.389,49.075   H335.223z" />
    <path d="M446.311,222.452l50.672,12.222c4.131-22.119-0.125-44.017-10.738-62.243c-0.832,0.469-1.684,0.87-2.506,1.367   C465.492,184.948,452.402,202.132,446.311,222.452z" />
    <path d="M403.223,250.557h29.93c-0.248-6.933,0.297-13.98,1.635-21.047l-25.025-6.034L403.223,250.557z"/>
    <path d="M437.016,220.215c6.693-22.807,21.314-42.095,41.73-54.583c0.736-0.449,1.521-0.804,2.268-1.233   c-11.658-15.922-28.535-28.066-48.875-33.728L412,214.181L437.016,220.215z" />
    <path d="M400.459,221.229l-31.193-7.526c-4.141,14.067-11.256,26.546-20.551,36.854h44.668L400.459,221.229z"/>
    <path d="M361.031,140.215c10.576,18.962,14.736,41.482,10.443,64.193l31.221,7.535l20.102-83.356   C400.793,124.867,379.049,129.399,361.031,140.215z" />
    <path d="M362.189,202.17c3.672-20.005,0.047-39.827-9.113-56.609c-15.031,11.321-26.545,27.405-32.254,46.636L362.189,202.17z" />
    <path d="M442.658,250.557h49.877c0.822-2.151,1.541-4.351,2.199-6.589l-50.672-12.221   C442.916,238.011,442.418,244.312,442.658,250.557z"/>
    <path d="M443.508,260.119h-9.543h-33.047h-9.83h-52.375h-11.359h-4.936h-48.711l0.812-9.562l10.453-122.888l11.322,1.348   c5.182,0.612,9.887-3.088,10.498-8.271l0.029-0.22c0.611-5.183-3.088-9.888-8.271-10.499l-47.698-5.671   c-5.183-0.612-9.888,3.089-10.5,8.271l-0.029,0.22c-0.612,5.183,3.089,9.888,8.271,10.5l12.307,1.463l-28.038,125.747l-1.329,5.986   c-0.191,1.205-0.22,2.4-0.143,3.576h-33.612h-8.396h-14.812h-59.268H10.595v114.75c0,23.906,14.344,38.25,36.653,38.25l0,0h443.863   c20.568,0,26.297-19.125,26.297-45.422V260.119h-29.205H443.508z" />
  </symbol>
</svg>